<svg width="55" height="55" viewBox="0 0 55 55" fill="none" xmlns="http://www.w3.org/2000/svg">
<path d="M44.3942 23.6385C43.9565 21.8419 42.6479 20.4852 41.0277 19.894L40.975 19.6808C40.3585 17.1508 38.7979 15.0127 36.5727 13.6606C34.8906 12.6363 32.984 12.1596 31.059 12.2513C29.425 7.99792 25.3688 5.15625 20.7786 5.15625C14.6896 5.15625 9.7373 10.1085 9.7373 16.1975V48.125C9.7373 49.0738 10.5073 49.8438 11.4561 49.8438C12.4048 49.8438 13.1748 49.0738 13.1748 48.125V16.1975C13.1748 12.0037 16.5848 8.59375 20.7786 8.59375C23.7829 8.59375 26.4504 10.3629 27.6765 13.0533C23.3865 14.8913 20.8977 19.5983 22.0344 24.2848L22.1215 24.6469C21.0696 25.9027 20.5929 27.6123 21.0077 29.3242C21.6013 31.7579 23.7875 33.3942 26.1892 33.3942C26.604 33.3942 27.0256 33.346 27.445 33.2429L40.4708 30.0781C43.3263 29.3838 45.0886 26.4985 44.3942 23.6385ZM30.0208 15.8538C30.5181 15.7323 31.0223 15.6727 31.5196 15.6727C32.6631 15.6727 33.7861 15.9867 34.7898 16.5963C36.0342 17.3525 36.9577 18.4915 37.4436 19.8435L25.2542 22.8067C24.8371 19.6556 26.8629 16.6215 30.0208 15.8538ZM39.6642 26.7392L26.6383 29.904C25.6254 30.1469 24.5965 29.5235 24.3513 28.5129C24.1061 27.5 24.7294 26.4733 25.7423 26.2281L38.7704 23.061C38.9194 23.0244 39.0683 23.0083 39.2127 23.0083C40.0652 23.0083 40.8421 23.5881 41.0529 24.4521C41.2981 25.4673 40.6748 26.4917 39.6619 26.7392H39.6642ZM34.8723 40.5625C35.1931 41.4585 34.7279 42.4394 33.8319 42.7579C33.6417 42.8267 33.4469 42.8587 33.2544 42.8587C32.5463 42.8587 31.8863 42.421 31.6365 41.7175L30.0965 37.4C29.7756 36.504 30.2408 35.5231 31.1369 35.2046C32.0283 34.8838 33.0138 35.3513 33.3323 36.245L34.8723 40.5625ZM43.2369 38.2273C43.5577 39.1233 43.0925 40.1042 42.1965 40.4227C42.0063 40.4915 41.8115 40.5235 41.619 40.5235C40.9108 40.5235 40.2508 40.0858 40.0011 39.3823L38.4611 35.0648C38.1402 34.1688 38.6054 33.1879 39.5015 32.8694C40.3906 32.544 41.3783 33.016 41.6969 33.9098L43.2369 38.2273Z" fill="black"/>
</svg>
