<svg width="25" height="25" viewBox="0 0 25 25" fill="none" xmlns="http://www.w3.org/2000/svg">
<g clip-path="url(#clip0_469_180)">
<path d="M12.5 0C5.59687 0 0 5.59687 0 12.5C0 19.4031 5.59687 25 12.5 25C19.4031 25 25 19.4031 25 12.5C25 5.59687 19.4031 0 12.5 0ZM12.5 23.4375C6.46875 23.4375 1.5625 18.5312 1.5625 12.5C1.5625 6.46875 6.46875 1.5625 12.5 1.5625C18.5312 1.5625 23.4375 6.46875 23.4375 12.5C23.4375 18.5312 18.5312 23.4375 12.5 23.4375ZM17.5547 6.36875L14.6469 8.18437L12.7047 9.39531C13.4578 9.44403 14.1675 9.7652 14.7011 10.2989C15.2348 10.8325 15.556 11.5422 15.6047 12.2953L16.8156 10.3547L18.6312 7.44531C18.7249 7.2955 18.765 7.11838 18.745 6.94285C18.725 6.76731 18.6461 6.60374 18.5212 6.47882C18.3963 6.3539 18.2327 6.275 18.0572 6.25501C17.8816 6.23502 17.7045 6.27512 17.5547 6.36875ZM9.39531 12.7047L8.18437 14.6469L6.36875 17.5563C6.29417 17.6743 6.25272 17.8102 6.24876 17.9498C6.24479 18.0893 6.27844 18.2274 6.3462 18.3495C6.41395 18.4716 6.5133 18.5732 6.63383 18.6436C6.75436 18.7141 6.89163 18.7508 7.03125 18.75C7.175 18.75 7.31875 18.7109 7.44531 18.6312L10.3531 16.8156L12.2953 15.6047C11.5423 15.5556 10.8328 15.2344 10.2992 14.7008C9.76563 14.1672 9.44435 13.4577 9.39531 12.7047ZM12.7047 9.39531C12.6359 9.39063 12.5703 9.375 12.5 9.375C10.7734 9.375 9.375 10.7734 9.375 12.5C9.375 12.5703 9.39063 12.6359 9.39531 12.7047C9.44435 13.4577 9.76563 14.1672 10.2992 14.7008C10.8328 15.2344 11.5423 15.5556 12.2953 15.6047C12.3641 15.6094 12.4297 15.625 12.5 15.625C14.2266 15.625 15.625 14.2266 15.625 12.5C15.625 12.4297 15.6094 12.3641 15.6047 12.2953C15.556 11.5422 15.2348 10.8325 14.7011 10.2989C14.1675 9.7652 13.4578 9.44403 12.7047 9.39531ZM10.9375 12.5C10.9375 11.6391 11.6391 10.9375 12.5 10.9375C13.3609 10.9375 14.0625 11.6391 14.0625 12.5C14.0625 13.3609 13.3609 14.0625 12.5 14.0625C11.6391 14.0625 10.9375 13.3609 10.9375 12.5Z" fill="black"/>
</g>
<defs>
<clipPath id="clip0_469_180">
<rect width="25" height="25" fill="white"/>
</clipPath>
</defs>
</svg>
