<svg width="25" height="25" viewBox="0 0 25 25" fill="none" xmlns="http://www.w3.org/2000/svg">
<path d="M9.64087 6.85938H7.24725C6.95347 6.85938 6.71533 7.11517 6.71533 7.43073C6.71533 7.74628 6.95347 8.00208 7.24725 8.00208H9.64087C9.93465 8.00208 10.1728 7.74628 10.1728 7.43073C10.1728 7.11517 9.93465 6.85938 9.64087 6.85938Z" fill="black"/>
<path d="M9.64087 9.43066H7.24725C6.95347 9.43066 6.71533 9.68646 6.71533 10.002C6.71533 10.3176 6.95347 10.5734 7.24725 10.5734H9.64087C9.93465 10.5734 10.1728 10.3176 10.1728 10.002C10.1728 9.68646 9.93465 9.43066 9.64087 9.43066Z" fill="black"/>
<path d="M9.64087 12.0017H7.24725C6.95347 12.0017 6.71533 12.2575 6.71533 12.5731C6.71533 12.8886 6.95347 13.1444 7.24725 13.1444H9.64087C9.93465 13.1444 10.1728 12.8886 10.1728 12.5731C10.1728 12.2575 9.93465 12.0017 9.64087 12.0017Z" fill="black"/>
<path d="M9.64087 14.5728H7.24725C6.95347 14.5728 6.71533 14.8285 6.71533 15.1441C6.71533 15.4597 6.95347 15.7155 7.24725 15.7155H9.64087C9.93465 15.7155 10.1728 15.4597 10.1728 15.1441C10.1728 14.8285 9.93465 14.5728 9.64087 14.5728Z" fill="black"/>
<path d="M9.64087 17.1438H7.24725C6.95347 17.1438 6.71533 17.3996 6.71533 17.7152C6.71533 18.0307 6.95347 18.2865 7.24725 18.2865H9.64087C9.93465 18.2865 10.1728 18.0307 10.1728 17.7152C10.1728 17.3996 9.93465 17.1438 9.64087 17.1438Z" fill="black"/>
<path d="M9.64087 19.7148H7.24725C6.95347 19.7148 6.71533 19.9706 6.71533 20.2862C6.71533 20.6018 6.95347 20.8575 7.24725 20.8575H9.64087C9.93465 20.8575 10.1728 20.6018 10.1728 20.2862C10.1728 19.9706 9.93465 19.7148 9.64087 19.7148Z" fill="black"/>
<path d="M17.7529 14.5728H14.4284C14.1346 14.5728 13.8965 14.8285 13.8965 15.1441C13.8965 15.4597 14.1346 15.7155 14.4284 15.7155H17.7529C18.0467 15.7155 18.2848 15.4597 18.2848 15.1441C18.2848 14.8285 18.0467 14.5728 17.7529 14.5728Z" fill="black"/>
<path d="M17.7529 17.1438H14.4284C14.1346 17.1438 13.8965 17.3996 13.8965 17.7152C13.8965 18.0307 14.1346 18.2865 14.4284 18.2865H17.7529C18.0467 18.2865 18.2848 18.0307 18.2848 17.7152C18.2848 17.3996 18.0467 17.1438 17.7529 17.1438Z" fill="black"/>
<path d="M17.7529 19.7148H14.4284C14.1346 19.7148 13.8965 19.9706 13.8965 20.2862C13.8965 20.6018 14.1346 20.8575 14.4284 20.8575H17.7529C18.0467 20.8575 18.2848 20.6018 18.2848 20.2862C18.2848 19.9706 18.0467 19.7148 17.7529 19.7148Z" fill="black"/>
<path d="M23.2713 21.2862C22.5036 21.2862 21.8512 21.8265 21.6263 22.5717H20.6782V12.573C20.6782 12.2575 20.4401 12.0017 20.1463 12.0017H12.5665V4.85986C12.5665 4.5443 12.3284 4.28851 12.0346 4.28851H10.1729V2.28878C10.1729 1.97322 9.93476 1.71743 9.64098 1.71743H8.97608V0.571352C8.97608 0.255794 8.73794 0 8.44417 0C8.15039 0 7.91225 0.255794 7.91225 0.571352V1.71743H7.24736C6.95358 1.71743 6.71544 1.97322 6.71544 2.28878V4.28851H4.85373C4.55996 4.28851 4.32182 4.5443 4.32182 4.85986V22.5718H3.37378C3.14894 21.8265 2.49649 21.2862 1.72873 21.2862C0.775534 21.2862 0 22.1192 0 23.1431C0 24.167 0.775534 25 1.72873 25C2.49644 25 3.14889 24.4597 3.37378 23.7145H4.85373C5.14751 23.7145 5.38565 23.4587 5.38565 23.1431V5.43121H11.5027V21.3761C10.8089 21.6176 10.3059 22.3184 10.3059 23.1431C10.3059 24.167 11.0814 25 12.0346 25C12.9878 25 13.7633 24.167 13.7633 23.1431C13.7633 22.3185 13.2603 21.6177 12.5665 21.3761V13.1444H19.6144V23.1431C19.6144 23.4587 19.8525 23.7145 20.1463 23.7145H21.6263C21.8511 24.4597 22.5036 25 23.2713 25C24.2245 25 25 24.167 25 23.1431C25.0001 22.1192 24.2245 21.2862 23.2713 21.2862ZM1.72873 23.8573C1.36208 23.8573 1.06383 23.5369 1.06383 23.1431C1.06383 22.7493 1.36208 22.4289 1.72873 22.4289C2.095 22.4289 2.39309 22.7488 2.39362 23.142V23.1431C2.39362 23.1431 2.39362 23.1439 2.39362 23.1442C2.39309 23.5375 2.095 23.8573 1.72873 23.8573ZM7.77927 2.86013H9.10906V4.28851H7.77927V2.86013ZM12.0346 23.8573C11.668 23.8573 11.3697 23.5369 11.3697 23.1431C11.3697 22.7497 11.6674 22.4295 12.0336 22.4289H12.0346C12.0346 22.4289 12.0353 22.4289 12.0356 22.4289C12.4018 22.4295 12.6995 22.7497 12.6995 23.1431C12.6995 23.5369 12.4012 23.8573 12.0346 23.8573ZM23.2713 23.8573C22.905 23.8573 22.607 23.5375 22.6064 23.1442C22.6064 23.1439 22.6064 23.1434 22.6064 23.1431C22.6064 23.1428 22.6064 23.1424 22.6064 23.142C22.607 22.7487 22.905 22.4289 23.2713 22.4289C23.638 22.4289 23.9362 22.7493 23.9362 23.1431C23.9362 23.5369 23.6379 23.8573 23.2713 23.8573Z" fill="black"/>
</svg>
