<svg width="27" height="27" viewBox="0 0 27 27" fill="none" xmlns="http://www.w3.org/2000/svg">
<mask id="path-1-outside-1_610_39" maskUnits="userSpaceOnUse" x="-0.171387" y="0.494629" width="27" height="26" fill="black">
<rect fill="white" x="-0.171387" y="0.494629" width="27" height="26"/>
<path d="M23.9978 25.2676L23.2516 23.0285H24.4633L25.2145 17.0204C25.2752 16.535 25.1433 16.0549 24.843 15.6688C24.5428 15.2826 24.1102 15.0365 23.6248 14.9758C23.1395 14.9151 22.782 15.0227 22.4396 15.2337L22.2745 13.4168C22.2188 12.8039 21.9334 12.2682 21.5073 11.8897V7.27608H22.3699L22.4396 15.2337L23.1229 14.9756L23.1024 7.27608H25.0029L23.8846 1.49463H18.3975L17.2793 7.27603H20.7749V11.451C20.5225 11.3579 20.2497 11.3069 19.9647 11.3069H14.7945C14.3052 11.3069 13.8452 11.4975 13.4993 11.8438C13.4368 11.9064 13.3796 11.9727 13.3275 12.0422C12.9932 11.596 12.4605 11.3069 11.8615 11.3069H6.68771C5.47926 11.3069 4.48619 12.2147 4.3777 13.4186L4.21422 15.2328C3.87257 15.0229 3.46051 14.9225 3.03263 14.9756C2.03063 15.0999 1.31657 16.0164 1.44083 17.0186L2.186 23.0284H3.40553L2.65939 25.2675H0.828577V26.0001H25.8286V25.2675L23.9978 25.2676ZM19.0018 2.22723H23.2803L24.1152 6.54348H18.167L19.0018 2.22723ZM23.5339 15.7028C23.8252 15.7391 24.0847 15.8868 24.2649 16.1185C24.445 16.3503 24.5242 16.6383 24.4878 16.9295L23.8168 22.2959H21.9201V19.7547L22.3075 16.6568C22.3827 16.0555 22.9331 15.6274 23.5339 15.7028ZM5.42203 19.3655L5.35597 18.8329C5.33424 18.6569 5.38693 18.4867 5.50436 18.3538C5.62184 18.2208 5.78429 18.1476 5.96173 18.1476H12.3498C12.6863 18.1476 12.9601 18.4214 12.9601 18.7581V19.3655H5.42203ZM21.2306 19.3655H13.6979V18.7581C13.6979 18.4214 13.9716 18.1476 14.3082 18.1476H20.1384C20.4534 18.1476 20.7536 18.283 20.962 18.5192C21.1666 18.7511 21.264 19.0586 21.2306 19.3655ZM5.10719 13.4843C5.18141 12.6607 5.8609 12.0395 6.68771 12.0395H11.8615C12.4673 12.0395 12.9601 12.5325 12.9601 13.1384V15.2126H13.6925V13.1393H13.6959C13.6957 12.8456 13.8098 12.5695 14.0174 12.3617C14.225 12.1539 14.5009 12.0395 14.7945 12.0395H19.9647C20.7908 12.0395 21.4703 12.6601 21.5451 13.4832L21.7696 15.9547C21.6736 16.1407 21.6082 16.3464 21.5807 16.5659L21.4102 17.9299C21.0702 17.6014 20.6147 17.415 20.1383 17.415H14.3082C14.0864 17.415 13.8771 17.4694 13.6925 17.565V15.9421H12.9601V17.5621C12.7769 17.4681 12.5694 17.415 12.3498 17.415H5.96173C5.69088 17.415 5.42911 17.4972 5.20885 17.6464L5.07511 16.5679C5.04772 16.3468 4.98165 16.1398 4.88478 15.9527L5.10719 13.4843ZM2.16774 16.9286C2.09318 16.3272 2.52164 15.7773 3.12282 15.7028C3.72399 15.628 4.27379 16.0567 4.34835 16.658L4.73229 19.7545V22.2959H2.83326L2.16774 16.9286ZM8.94015 23.0285V22.2959H5.46466V20.0981H21.1878V22.2959H9.69904V23.0285H22.4796L23.2109 25.2233H22.1764L21.6881 23.7581H4.96906L4.48077 25.2233H3.4462L4.1776 23.0285H8.94015ZM5.49699 24.4907H21.1602L21.4191 25.2675H5.2381L5.49699 24.4907Z"/>
</mask>
<path d="M23.9978 25.2676L23.2516 23.0285H24.4633L25.2145 17.0204C25.2752 16.535 25.1433 16.0549 24.843 15.6688C24.5428 15.2826 24.1102 15.0365 23.6248 14.9758C23.1395 14.9151 22.782 15.0227 22.4396 15.2337L22.2745 13.4168C22.2188 12.8039 21.9334 12.2682 21.5073 11.8897V7.27608H22.3699L22.4396 15.2337L23.1229 14.9756L23.1024 7.27608H25.0029L23.8846 1.49463H18.3975L17.2793 7.27603H20.7749V11.451C20.5225 11.3579 20.2497 11.3069 19.9647 11.3069H14.7945C14.3052 11.3069 13.8452 11.4975 13.4993 11.8438C13.4368 11.9064 13.3796 11.9727 13.3275 12.0422C12.9932 11.596 12.4605 11.3069 11.8615 11.3069H6.68771C5.47926 11.3069 4.48619 12.2147 4.3777 13.4186L4.21422 15.2328C3.87257 15.0229 3.46051 14.9225 3.03263 14.9756C2.03063 15.0999 1.31657 16.0164 1.44083 17.0186L2.186 23.0284H3.40553L2.65939 25.2675H0.828577V26.0001H25.8286V25.2675L23.9978 25.2676ZM19.0018 2.22723H23.2803L24.1152 6.54348H18.167L19.0018 2.22723ZM23.5339 15.7028C23.8252 15.7391 24.0847 15.8868 24.2649 16.1185C24.445 16.3503 24.5242 16.6383 24.4878 16.9295L23.8168 22.2959H21.9201V19.7547L22.3075 16.6568C22.3827 16.0555 22.9331 15.6274 23.5339 15.7028ZM5.42203 19.3655L5.35597 18.8329C5.33424 18.6569 5.38693 18.4867 5.50436 18.3538C5.62184 18.2208 5.78429 18.1476 5.96173 18.1476H12.3498C12.6863 18.1476 12.9601 18.4214 12.9601 18.7581V19.3655H5.42203ZM21.2306 19.3655H13.6979V18.7581C13.6979 18.4214 13.9716 18.1476 14.3082 18.1476H20.1384C20.4534 18.1476 20.7536 18.283 20.962 18.5192C21.1666 18.7511 21.264 19.0586 21.2306 19.3655ZM5.10719 13.4843C5.18141 12.6607 5.8609 12.0395 6.68771 12.0395H11.8615C12.4673 12.0395 12.9601 12.5325 12.9601 13.1384V15.2126H13.6925V13.1393H13.6959C13.6957 12.8456 13.8098 12.5695 14.0174 12.3617C14.225 12.1539 14.5009 12.0395 14.7945 12.0395H19.9647C20.7908 12.0395 21.4703 12.6601 21.5451 13.4832L21.7696 15.9547C21.6736 16.1407 21.6082 16.3464 21.5807 16.5659L21.4102 17.9299C21.0702 17.6014 20.6147 17.415 20.1383 17.415H14.3082C14.0864 17.415 13.8771 17.4694 13.6925 17.565V15.9421H12.9601V17.5621C12.7769 17.4681 12.5694 17.415 12.3498 17.415H5.96173C5.69088 17.415 5.42911 17.4972 5.20885 17.6464L5.07511 16.5679C5.04772 16.3468 4.98165 16.1398 4.88478 15.9527L5.10719 13.4843ZM2.16774 16.9286C2.09318 16.3272 2.52164 15.7773 3.12282 15.7028C3.72399 15.628 4.27379 16.0567 4.34835 16.658L4.73229 19.7545V22.2959H2.83326L2.16774 16.9286ZM8.94015 23.0285V22.2959H5.46466V20.0981H21.1878V22.2959H9.69904V23.0285H22.4796L23.2109 25.2233H22.1764L21.6881 23.7581H4.96906L4.48077 25.2233H3.4462L4.1776 23.0285H8.94015ZM5.49699 24.4907H21.1602L21.4191 25.2675H5.2381L5.49699 24.4907Z" fill="black"/>
<path d="M23.9978 25.2676L23.808 25.3308L23.8536 25.4676L23.9978 25.4676L23.9978 25.2676ZM23.2516 23.0285V22.8285H22.9742L23.0619 23.0918L23.2516 23.0285ZM24.4633 23.0285V23.2285H24.6399L24.6618 23.0534L24.4633 23.0285ZM25.2145 17.0204L25.0161 16.9956L25.0161 16.9956L25.2145 17.0204ZM24.843 15.6688L24.6851 15.7915L24.6851 15.7915L24.843 15.6688ZM22.4396 15.2337L22.2404 15.2518L22.2642 15.5137L22.5102 15.4208L22.4396 15.2337ZM22.2745 13.4168L22.4737 13.3988L22.4737 13.3987L22.2745 13.4168ZM21.5073 11.8897H21.3073V11.9796L21.3745 12.0392L21.5073 11.8897ZM21.5073 7.27608V7.07608H21.3073V7.27608H21.5073ZM22.3699 7.27608L22.5699 7.27433L22.5682 7.07608H22.3699V7.27608ZM23.1229 14.9756L23.1935 15.1627L23.3232 15.1137L23.3229 14.9751L23.1229 14.9756ZM23.1024 7.27608V7.07608H22.9018L22.9024 7.27661L23.1024 7.27608ZM25.0029 7.27608V7.47608H25.2453L25.1993 7.2381L25.0029 7.27608ZM23.8846 1.49463L24.081 1.45665L24.0497 1.29463H23.8846V1.49463ZM18.3975 1.49463V1.29463H18.2325L18.2012 1.45665L18.3975 1.49463ZM17.2793 7.27603L17.0829 7.23805L17.0369 7.47603H17.2793V7.27603ZM20.7749 7.27603H20.9749V7.07603H20.7749V7.27603ZM20.7749 11.451L20.7057 11.6386L20.9749 11.7379V11.451H20.7749ZM13.4993 11.8438L13.3578 11.7025L13.3577 11.7025L13.4993 11.8438ZM13.3275 12.0422L13.1674 12.1621L13.3275 12.3757L13.4875 12.1622L13.3275 12.0422ZM4.3777 13.4186L4.17851 13.4006L4.1785 13.4006L4.3777 13.4186ZM4.21422 15.2328L4.10952 15.4032L4.38446 15.5721L4.41341 15.2507L4.21422 15.2328ZM3.03263 14.9756L3.05725 15.1741L3.05726 15.1741L3.03263 14.9756ZM1.44083 17.0186L1.63931 16.994L1.63931 16.994L1.44083 17.0186ZM2.186 23.0284L1.98752 23.0531L2.00927 23.2284H2.186V23.0284ZM3.40553 23.0284L3.59527 23.0917L3.68299 22.8284H3.40553V23.0284ZM2.65939 25.2675V25.4675H2.80355L2.84913 25.3307L2.65939 25.2675ZM0.828577 25.2675V25.0675H0.628577V25.2675H0.828577ZM0.828577 26.0001H0.628577V26.2001H0.828577V26.0001ZM25.8286 26.0001V26.2001H26.0286V26.0001H25.8286ZM25.8286 25.2675H26.0286V25.0675L25.8286 25.0675L25.8286 25.2675ZM19.0018 2.22723V2.02723H18.8368L18.8055 2.18925L19.0018 2.22723ZM23.2803 2.22723L23.4767 2.18925L23.4454 2.02723H23.2803V2.22723ZM24.1152 6.54348V6.74348H24.3576L24.3116 6.5055L24.1152 6.54348ZM18.167 6.54348L17.9706 6.5055L17.9246 6.74348H18.167V6.54348ZM23.5339 15.7028L23.5091 15.9012L23.5092 15.9012L23.5339 15.7028ZM24.2649 16.1185L24.4228 15.9958L24.4228 15.9958L24.2649 16.1185ZM24.4878 16.9295L24.2893 16.9047V16.9047L24.4878 16.9295ZM23.8168 22.2959V22.4959H23.9933L24.0152 22.3208L23.8168 22.2959ZM21.9201 22.2959H21.7201V22.4959H21.9201V22.2959ZM21.9201 19.7547L21.7217 19.7299L21.7201 19.7422V19.7547H21.9201ZM22.3075 16.6568L22.109 16.6319V16.6319L22.3075 16.6568ZM5.42203 19.3655L5.22356 19.3902L5.24531 19.5655H5.42203V19.3655ZM5.35597 18.8329L5.15748 18.8574L5.15749 18.8575L5.35597 18.8329ZM5.50436 18.3538L5.35447 18.2214L5.35446 18.2214L5.50436 18.3538ZM12.9601 19.3655V19.5655H13.1601V19.3655H12.9601ZM21.2306 19.3655V19.5655H21.41L21.4294 19.3872L21.2306 19.3655ZM13.6979 19.3655H13.4979V19.5655H13.6979V19.3655ZM20.962 18.5192L20.8121 18.6516L20.8121 18.6516L20.962 18.5192ZM5.10719 13.4843L5.30638 13.5023L5.10719 13.4843ZM12.9601 15.2126H12.7601V15.4126H12.9601V15.2126ZM13.6925 15.2126V15.4126H13.8925V15.2126H13.6925ZM13.6925 13.1393V12.9393H13.4925V13.1393H13.6925ZM13.6959 13.1393V13.3393H13.896L13.8959 13.1392L13.6959 13.1393ZM21.5451 13.4832L21.7443 13.4651V13.4651L21.5451 13.4832ZM21.7696 15.9547L21.9474 16.0464L21.9741 15.9946L21.9688 15.9366L21.7696 15.9547ZM21.5807 16.5659L21.7792 16.5907L21.7792 16.5907L21.5807 16.5659ZM21.4102 17.9299L21.2712 18.0737L21.559 18.3518L21.6086 17.9547L21.4102 17.9299ZM13.6925 17.565H13.4925V17.8939L13.7845 17.7426L13.6925 17.565ZM13.6925 15.9421H13.8925V15.7421H13.6925V15.9421ZM12.9601 15.9421V15.7421H12.7601V15.9421H12.9601ZM12.9601 17.5621L12.8689 17.74L13.1601 17.8893V17.5621H12.9601ZM5.20885 17.6464L5.01037 17.671L5.05056 17.9951L5.32099 17.812L5.20885 17.6464ZM5.07511 16.5679L4.87663 16.5925L4.87663 16.5925L5.07511 16.5679ZM4.88478 15.9527L4.68559 15.9347L4.68035 15.9928L4.70716 16.0446L4.88478 15.9527ZM2.16774 16.9286L2.36622 16.9039L2.16774 16.9286ZM3.12282 15.7028L3.14744 15.9012L3.14749 15.9012L3.12282 15.7028ZM4.34835 16.658L4.54683 16.6334V16.6334L4.34835 16.658ZM4.73229 19.7545H4.93229V19.7421L4.93077 19.7299L4.73229 19.7545ZM4.73229 22.2959V22.4959H4.93229V22.2959H4.73229ZM2.83326 22.2959L2.63478 22.3205L2.65653 22.4959H2.83326V22.2959ZM8.94015 23.0285V23.2285H9.14015V23.0285H8.94015ZM8.94015 22.2959H9.14015V22.0959H8.94015V22.2959ZM5.46466 22.2959H5.26466V22.4959H5.46466V22.2959ZM5.46466 20.0981V19.8981H5.26466V20.0981H5.46466ZM21.1878 20.0981H21.3878V19.8981H21.1878V20.0981ZM21.1878 22.2959V22.4959H21.3878V22.2959H21.1878ZM9.69904 22.2959V22.0959H9.49904V22.2959H9.69904ZM9.69904 23.0285H9.49904V23.2285H9.69904V23.0285ZM22.4796 23.0285L22.6693 22.9653L22.6237 22.8285H22.4796V23.0285ZM23.2109 25.2233V25.4233H23.4884L23.4007 25.1601L23.2109 25.2233ZM22.1764 25.2233L21.9866 25.2866L22.0322 25.4233H22.1764V25.2233ZM21.6881 23.7581L21.8778 23.6949L21.8323 23.5581H21.6881V23.7581ZM4.96906 23.7581V23.5581H4.82489L4.77931 23.6949L4.96906 23.7581ZM4.48077 25.2233V25.4233H4.62494L4.67052 25.2866L4.48077 25.2233ZM3.4462 25.2233L3.25646 25.1601L3.16874 25.4233H3.4462V25.2233ZM4.1776 23.0285V22.8285H4.03344L3.98786 22.9653L4.1776 23.0285ZM5.49699 24.4907V24.2907H5.35282L5.30724 24.4274L5.49699 24.4907ZM21.1602 24.4907L21.3499 24.4274L21.3043 24.2907H21.1602V24.4907ZM21.4191 25.2675V25.4675H21.6965L21.6088 25.2043L21.4191 25.2675ZM5.2381 25.2675L5.04836 25.2043L4.96064 25.4675H5.2381V25.2675ZM24.1875 25.2043L23.4414 22.9653L23.0619 23.0918L23.808 25.3308L24.1875 25.2043ZM23.2516 23.2285H24.4633V22.8285H23.2516V23.2285ZM24.6618 23.0534L25.413 17.0452L25.0161 16.9956L24.2649 23.0037L24.6618 23.0534ZM25.413 17.0452C25.4802 16.5072 25.3338 15.9741 25.0009 15.546L24.6851 15.7915C24.9529 16.1358 25.0702 16.5628 25.0161 16.9956L25.413 17.0452ZM25.0009 15.546C24.6681 15.118 24.1876 14.8446 23.6496 14.7773L23.6 15.1742C24.0327 15.2284 24.4175 15.4472 24.6851 15.7915L25.0009 15.546ZM23.6496 14.7773C23.114 14.7103 22.7113 14.8314 22.3347 15.0634L22.5445 15.404C22.8528 15.214 23.165 15.1198 23.6 15.1742L23.6496 14.7773ZM22.6387 15.2156L22.4737 13.3988L22.0753 13.4349L22.2404 15.2518L22.6387 15.2156ZM22.4737 13.3987C22.4133 12.7339 22.1033 12.1516 21.6401 11.7402L21.3745 12.0392C21.7634 12.3847 22.0243 12.8739 22.0753 13.435L22.4737 13.3987ZM21.7073 11.8897V7.27608H21.3073V11.8897H21.7073ZM21.5073 7.47608H22.3699V7.07608H21.5073V7.47608ZM22.1699 7.27783L22.2396 15.2355L22.6396 15.232L22.5699 7.27433L22.1699 7.27783ZM22.5102 15.4208L23.1935 15.1627L23.0522 14.7885L22.3689 15.0466L22.5102 15.4208ZM23.3229 14.9751L23.3024 7.27555L22.9024 7.27661L22.9229 14.9762L23.3229 14.9751ZM23.1024 7.47608H25.0029V7.07608H23.1024V7.47608ZM25.1993 7.2381L24.081 1.45665L23.6883 1.53261L24.8066 7.31406L25.1993 7.2381ZM23.8846 1.29463H18.3975V1.69463H23.8846V1.29463ZM18.2012 1.45665L17.0829 7.23805L17.4756 7.31401L18.5939 1.53261L18.2012 1.45665ZM17.2793 7.47603H20.7749V7.07603H17.2793V7.47603ZM20.5749 7.27603V11.451H20.9749V7.27603H20.5749ZM20.8441 11.2633C20.57 11.1623 20.2738 11.1069 19.9647 11.1069V11.5069C20.2256 11.5069 20.475 11.5536 20.7057 11.6386L20.8441 11.2633ZM19.9647 11.1069H14.7945V11.5069H19.9647V11.1069ZM14.7945 11.1069C14.2521 11.1069 13.7412 11.3186 13.3578 11.7025L13.6408 11.9851C13.9492 11.6764 14.3583 11.5069 14.7945 11.5069V11.1069ZM13.3577 11.7025C13.2885 11.7719 13.2251 11.8453 13.1675 11.9222L13.4875 12.1622C13.5341 12.1 13.5852 12.0409 13.6408 11.9851L13.3577 11.7025ZM13.4876 11.9223C13.1173 11.4281 12.5264 11.1069 11.8615 11.1069V11.5069C12.3946 11.5069 12.8692 11.764 13.1674 12.1621L13.4876 11.9223ZM11.8615 11.1069H6.68771V11.5069H11.8615V11.1069ZM6.68771 11.1069C5.37571 11.1069 4.29629 12.0937 4.17851 13.4006L4.57689 13.4365C4.6761 12.3357 5.58281 11.5069 6.68771 11.5069V11.1069ZM4.1785 13.4006L4.01503 15.2148L4.41341 15.2507L4.57689 13.4365L4.1785 13.4006ZM4.31892 15.0624C3.94027 14.8297 3.48285 14.7182 3.008 14.7772L3.05726 15.1741C3.43818 15.1268 3.80487 15.216 4.10952 15.4032L4.31892 15.0624ZM3.00801 14.7772C1.89635 14.9151 1.1045 15.9315 1.24235 17.0432L1.63931 16.994C1.52863 16.1014 2.1649 15.2848 3.05725 15.1741L3.00801 14.7772ZM1.24235 17.0432L1.98752 23.0531L2.38448 23.0038L1.63931 16.994L1.24235 17.0432ZM2.186 23.2284H3.40553V22.8284H2.186V23.2284ZM3.21579 22.9652L2.46965 25.2042L2.84913 25.3307L3.59527 23.0917L3.21579 22.9652ZM2.65939 25.0675H0.828577V25.4675H2.65939V25.0675ZM0.628577 25.2675V26.0001H1.02858V25.2675H0.628577ZM0.828577 26.2001H25.8286V25.8001H0.828577V26.2001ZM26.0286 26.0001V25.2675H25.6286V26.0001H26.0286ZM25.8286 25.0675L23.9978 25.0676L23.9978 25.4676L25.8286 25.4675L25.8286 25.0675ZM19.0018 2.42723H23.2803V2.02723H19.0018V2.42723ZM23.084 2.26521L23.9188 6.58146L24.3116 6.5055L23.4767 2.18925L23.084 2.26521ZM24.1152 6.34348H18.167V6.74348H24.1152V6.34348ZM18.3633 6.58146L19.1982 2.26521L18.8055 2.18925L17.9706 6.5055L18.3633 6.58146ZM23.5092 15.9012C23.7477 15.931 23.9594 16.0515 24.107 16.2413L24.4228 15.9958C24.2101 15.7222 23.9026 15.5473 23.5587 15.5043L23.5092 15.9012ZM24.1069 16.2413C24.2546 16.4312 24.3191 16.6661 24.2893 16.9047L24.6862 16.9544C24.7292 16.6105 24.6354 16.2694 24.4228 15.9958L24.1069 16.2413ZM24.2893 16.9047L23.6183 22.2711L24.0152 22.3208L24.6862 16.9543L24.2893 16.9047ZM23.8168 22.0959H21.9201V22.4959H23.8168V22.0959ZM22.1201 22.2959V19.7547H21.7201V22.2959H22.1201ZM22.1186 19.7795L22.5059 16.6816L22.109 16.6319L21.7217 19.7299L22.1186 19.7795ZM22.5059 16.6816C22.5674 16.1899 23.018 15.8396 23.5091 15.9012L23.5588 15.5043C22.8483 15.4152 22.1979 15.9212 22.109 16.6319L22.5059 16.6816ZM5.62051 19.3409L5.55445 18.8083L5.15749 18.8575L5.22356 19.3902L5.62051 19.3409ZM5.55446 18.8084C5.53975 18.6892 5.57475 18.5762 5.65425 18.4862L5.35446 18.2214C5.1991 18.3973 5.12873 18.6246 5.15748 18.8574L5.55446 18.8084ZM5.65425 18.4862C5.73377 18.3962 5.84164 18.3476 5.96173 18.3476V17.9476C5.72694 17.9476 5.50991 18.0454 5.35447 18.2214L5.65425 18.4862ZM5.96173 18.3476H12.3498V17.9476H5.96173V18.3476ZM12.3498 18.3476C12.5758 18.3476 12.7601 18.5318 12.7601 18.7581H13.1601C13.1601 18.311 12.7968 17.9476 12.3498 17.9476V18.3476ZM12.7601 18.7581V19.3655H13.1601V18.7581H12.7601ZM12.9601 19.1655H5.42203V19.5655H12.9601V19.1655ZM21.2306 19.1655H13.6979V19.5655H21.2306V19.1655ZM13.8979 19.3655V18.7581H13.4979V19.3655H13.8979ZM13.8979 18.7581C13.8979 18.5318 14.0821 18.3476 14.3082 18.3476V17.9476C13.8611 17.9476 13.4979 18.311 13.4979 18.7581H13.8979ZM14.3082 18.3476H20.1384V17.9476H14.3082V18.3476ZM20.1384 18.3476C20.396 18.3476 20.6416 18.4583 20.8121 18.6516L21.112 18.3869C20.8656 18.1076 20.5108 17.9476 20.1384 17.9476V18.3476ZM20.8121 18.6516C20.9794 18.8412 21.0591 19.0928 21.0318 19.3439L21.4294 19.3872C21.4689 19.0244 21.3538 18.661 21.112 18.3869L20.8121 18.6516ZM5.30638 13.5023C5.37132 12.7816 5.96444 12.2395 6.68771 12.2395V11.8395C5.75736 11.8395 4.9915 12.5397 4.908 13.4664L5.30638 13.5023ZM6.68771 12.2395H11.8615V11.8395H6.68771V12.2395ZM11.8615 12.2395C12.3568 12.2395 12.7601 12.6429 12.7601 13.1384H13.1601C13.1601 12.4221 12.5778 11.8395 11.8615 11.8395V12.2395ZM12.7601 13.1384V15.2126H13.1601V13.1384H12.7601ZM12.9601 15.4126H13.6925V15.0126H12.9601V15.4126ZM13.8925 15.2126V13.1393H13.4925V15.2126H13.8925ZM13.6925 13.3393H13.6959V12.9393H13.6925V13.3393ZM13.8959 13.1392C13.8958 12.8985 13.9888 12.6733 14.1589 12.5031L13.8759 12.2204C13.6308 12.4657 13.4957 12.7927 13.4959 13.1394L13.8959 13.1392ZM14.1589 12.5031C14.329 12.3328 14.554 12.2395 14.7945 12.2395V11.8395C14.4478 11.8395 14.121 11.9751 13.8759 12.2204L14.1589 12.5031ZM14.7945 12.2395H19.9647V11.8395H14.7945V12.2395ZM19.9647 12.2395C20.6873 12.2395 21.2805 12.7812 21.3459 13.5013L21.7443 13.4651C21.6601 12.539 20.8943 11.8395 19.9647 11.8395V12.2395ZM21.3459 13.5013L21.5705 15.9728L21.9688 15.9366L21.7443 13.4651L21.3459 13.5013ZM21.5919 15.863C21.4853 16.0695 21.4127 16.2978 21.3823 16.5411L21.7792 16.5907C21.8037 16.3949 21.862 16.2119 21.9474 16.0464L21.5919 15.863ZM21.3823 16.5411L21.2117 17.9051L21.6086 17.9547L21.7792 16.5907L21.3823 16.5411ZM21.5491 17.786C21.1722 17.4219 20.6669 17.215 20.1383 17.215V17.615C20.5624 17.615 20.9682 17.781 21.2712 18.0737L21.5491 17.786ZM20.1383 17.215H14.3082V17.615H20.1383V17.215ZM14.3082 17.215C14.0534 17.215 13.8126 17.2775 13.6005 17.3874L13.7845 17.7426C13.9416 17.6612 14.1194 17.615 14.3082 17.615V17.215ZM13.8925 17.565V15.9421H13.4925V17.565H13.8925ZM13.6925 15.7421H12.9601V16.1421H13.6925V15.7421ZM12.7601 15.9421V17.5621H13.1601V15.9421H12.7601ZM13.0513 17.3841C12.8407 17.2761 12.6021 17.215 12.3498 17.215V17.615C12.5368 17.615 12.713 17.6602 12.8689 17.74L13.0513 17.3841ZM12.3498 17.215H5.96173V17.615H12.3498V17.215ZM5.96173 17.215C5.65027 17.215 5.34955 17.3096 5.09671 17.4808L5.32099 17.812C5.50868 17.6849 5.73149 17.615 5.96173 17.615V17.215ZM5.40733 17.6218L5.27359 16.5433L4.87663 16.5925L5.01037 17.671L5.40733 17.6218ZM5.27359 16.5433C5.24323 16.2982 5.16993 16.0685 5.06239 15.8607L4.70716 16.0446C4.79338 16.2112 4.85221 16.3954 4.87663 16.5925L5.27359 16.5433ZM5.08397 15.9706L5.30638 13.5023L4.908 13.4664L4.68559 15.9347L5.08397 15.9706ZM2.36622 16.9039C2.30524 16.4122 2.65591 15.9622 3.14744 15.9012L3.09819 15.5043C2.38737 15.5925 1.88111 16.2423 1.96926 16.9532L2.36622 16.9039ZM3.14749 15.9012C3.63893 15.8401 4.0889 16.1909 4.14987 16.6826L4.54683 16.6334C4.45869 15.9225 3.80905 15.4159 3.09815 15.5043L3.14749 15.9012ZM4.14987 16.6826L4.53381 19.7791L4.93077 19.7299L4.54683 16.6334L4.14987 16.6826ZM4.53229 19.7545V22.2959H4.93229V19.7545H4.53229ZM4.73229 22.0959H2.83326V22.4959H4.73229V22.0959ZM3.03174 22.2713L2.36622 16.9039L1.96926 16.9532L2.63478 22.3205L3.03174 22.2713ZM9.14015 23.0285V22.2959H8.74015V23.0285H9.14015ZM8.94015 22.0959H5.46466V22.4959H8.94015V22.0959ZM5.66466 22.2959V20.0981H5.26466V22.2959H5.66466ZM5.46466 20.2981H21.1878V19.8981H5.46466V20.2981ZM20.9878 20.0981V22.2959H21.3878V20.0981H20.9878ZM21.1878 22.0959H9.69904V22.4959H21.1878V22.0959ZM9.49904 22.2959V23.0285H9.89904V22.2959H9.49904ZM9.69904 23.2285H22.4796V22.8285H9.69904V23.2285ZM22.2898 23.0918L23.0212 25.2865L23.4007 25.1601L22.6693 22.9653L22.2898 23.0918ZM23.2109 25.0233H22.1764V25.4233H23.2109V25.0233ZM22.3661 25.1601L21.8778 23.6949L21.4984 23.8213L21.9866 25.2866L22.3661 25.1601ZM21.6881 23.5581H4.96906V23.9581H21.6881V23.5581ZM4.77931 23.6949L4.29103 25.1601L4.67052 25.2866L5.1588 23.8213L4.77931 23.6949ZM4.48077 25.0233H3.4462V25.4233H4.48077V25.0233ZM3.63595 25.2865L4.36734 23.0918L3.98786 22.9653L3.25646 25.1601L3.63595 25.2865ZM4.1776 23.2285H8.94015V22.8285H4.1776V23.2285ZM5.49699 24.6907H21.1602V24.2907H5.49699V24.6907ZM20.9704 24.5539L21.2293 25.3308L21.6088 25.2043L21.3499 24.4274L20.9704 24.5539ZM21.4191 25.0675H5.2381V25.4675H21.4191V25.0675ZM5.42784 25.3308L5.68673 24.5539L5.30724 24.4274L5.04836 25.2043L5.42784 25.3308Z" fill="black" mask="url(#path-1-outside-1_610_39)"/>
<path d="M13.5814 1V0.9H13.4814H9.93765H9.83765H9.73765H1.03027H0.930273V1V9.86756V9.96756H1.03027H13.4814H13.5814V9.86756V1ZM9.83765 1.8326H9.93765H12.649V9.03496H1.8627V1.8326H9.73765H9.83765Z" fill="black" stroke="black" stroke-width="0.2"/>
<path d="M8.25648 4.86785L8.25648 4.86786C8.89723 5.1313 9.39924 5.32362 9.84541 5.36843C10.2692 5.41099 10.6436 5.32027 11.0377 5.01392V3.44442H3.47402L3.47398 4.83387C3.98866 4.50339 4.73061 4.17438 5.64492 4.17438L8.25648 4.86785ZM8.25648 4.86785L8.25199 4.86601C7.69373 4.63651 7.10718 4.39538 6.44954 4.25849L8.25648 4.86785ZM2.5416 8.25593V8.35593H2.6416H11.8701H11.9701V8.25593V2.61182V2.51182H11.8701H2.6416H2.5416V2.61182V8.25593ZM6.25955 5.17155L6.27993 5.07365L6.25955 5.17155C6.83147 5.29063 7.37081 5.5121 7.90201 5.73049L7.91862 5.73732C8.90251 6.14191 9.9628 6.57791 11.0377 6.09695V7.42338H3.47402V6.01026C3.81338 5.69221 4.84711 4.87747 6.25955 5.17155ZM8.21846 4.96034L8.21739 4.9599C7.65707 4.72956 7.07771 4.49139 6.42915 4.35639L8.21846 4.96034Z" fill="black" stroke="black" stroke-width="0.2"/>
<path d="M7.46973 14.16H7.36973V14.26V14.9926V15.0926H7.46973H8.20215H8.30215V14.9926V14.26V14.16H8.20215H7.46973Z" fill="black" stroke="black" stroke-width="0.2"/>
<path d="M10.0576 14.16H9.95762V14.26V14.9926V15.0926H10.0576H10.79H10.89V14.9926V14.26V14.16H10.79H10.0576Z" fill="black" stroke="black" stroke-width="0.2"/>
<path d="M16.2588 14.16H16.1588V14.26V14.9926V15.0926H16.2588H16.9912H17.0912V14.9926V14.26V14.16H16.9912H16.2588Z" fill="black" stroke="black" stroke-width="0.2"/>
<path d="M18.8467 14.16H18.7467V14.26V14.9926V15.0926H18.8467H19.5791H19.6791V14.9926V14.26V14.16H19.5791H18.8467Z" fill="black" stroke="black" stroke-width="0.2"/>
</svg>
