<svg width="25" height="25" viewBox="0 0 25 25" fill="none" xmlns="http://www.w3.org/2000/svg">
<path d="M3.84589 0C3.05394 0 2.36778 0.876916 2.36779 1.97964V9.95255C2.36779 10.2126 2.40905 10.4583 2.47774 10.6853C2.04501 11.0974 1.68959 11.5448 1.3935 12.0162C0.615174 13.2554 0.309122 14.9073 0.14973 16.2486C-0.00966252 17.5898 0.000116821 18.6718 0.000116821 18.6718V20.3203C0.000116821 20.714 0.0476999 21.1775 0.330887 21.5214C0.614075 21.8653 0.909842 21.848 1.06633 21.8477C1.06754 21.8477 1.06874 21.8477 1.06994 21.8477C1.51616 21.8422 1.91953 21.6096 2.13255 21.2224C2.34557 20.8352 2.32723 20.3401 2.32723 20.3401L2.32993 20.4142V18.5038C2.32993 17.4762 2.49064 17.2968 2.48675 17.2989C2.48916 17.299 2.49156 17.299 2.49396 17.2989H12.4982H22.506C22.5084 17.299 22.5108 17.299 22.5132 17.2989C22.5094 17.2968 22.6701 17.4762 22.6701 18.5038V20.4142L22.6737 20.3401C22.6737 20.3401 22.6544 20.8352 22.8675 21.2224C23.0805 21.6096 23.4838 21.8422 23.9301 21.8477C23.9313 21.8477 23.9325 21.8477 23.9337 21.8477C24.0902 21.848 24.3859 21.8653 24.6691 21.5214C24.9523 21.1775 24.9999 20.714 24.9999 20.3203V18.6718V18.6582C25 18.6459 25.0088 17.5821 24.8503 16.2486C24.6909 14.9073 24.3848 13.2554 23.6065 12.0162C23.3103 11.5447 22.9552 11.0975 22.5223 10.6853C22.591 10.4583 22.6322 10.2126 22.6322 9.95255V1.97964C22.6322 0.876921 21.9461 0 21.1541 0H3.84589ZM3.84589 1.83011H21.1541C21.261 1.83011 21.2974 1.90358 21.2974 1.97964V9.76719C20.9682 9.57643 20.6079 9.40154 20.2069 9.24695C20.1952 9.24244 20.1817 9.23907 20.1699 9.23459V5.18882C20.1699 4.7407 19.9855 4.36083 19.7779 4.1471C19.5702 3.93337 19.3287 3.83817 19.0767 3.83817H14.4945C14.2425 3.83817 14.0001 3.93336 13.7924 4.1471C13.5847 4.36084 13.4013 4.74072 13.4013 5.18882V8.24972C13.1054 8.24441 12.8124 8.23859 12.4982 8.23859C12.1449 8.23859 11.8135 8.24425 11.4834 8.25095V5.18882C11.4834 4.7407 11.3026 4.36083 11.0949 4.1471C10.8872 3.93337 10.6449 3.83817 10.3928 3.83817H5.81158C5.55954 3.83817 5.31718 3.93336 5.10949 4.1471C4.90179 4.36084 4.71833 4.74072 4.71833 5.18882V9.27908C4.3482 9.42595 4.01027 9.58889 3.70258 9.76719V1.97964C3.70258 1.90359 3.73901 1.83011 3.84589 1.83011ZM6.05313 5.66457H10.1513V8.29791C8.4876 8.3865 7.15068 8.57523 6.05313 8.85399V5.66457ZM14.7361 5.66457H18.8342V8.82309C17.7346 8.5545 16.3909 8.37612 14.7361 8.29297V5.66457ZM12.4982 10.0687C13.0545 10.0687 13.571 10.0811 14.0664 10.0984C14.1741 10.1021 14.277 10.1062 14.3819 10.1107C14.433 10.1129 14.4783 10.117 14.5288 10.1194C14.9045 10.1372 15.2713 10.1572 15.6121 10.1849C15.6673 10.1893 15.7255 10.1938 15.7798 10.1985C16.1504 10.2307 16.4917 10.2701 16.8225 10.3134C16.8923 10.3225 16.9744 10.3285 17.0425 10.3381C17.0453 10.3385 17.0487 10.3389 17.0515 10.3393C17.2668 10.3698 17.4529 10.4081 17.6517 10.4431C17.8512 10.4784 18.0603 10.5123 18.2439 10.5519C18.4019 10.5858 18.5396 10.6249 18.6864 10.6619C18.8794 10.7107 19.0755 10.7588 19.2497 10.8126C19.5019 10.8899 19.7441 10.9694 19.9608 11.0561C19.9677 11.0588 19.9738 11.0619 19.9806 11.0647C20.2127 11.1583 20.4245 11.2582 20.6197 11.3613C20.6324 11.368 20.6458 11.3743 20.6584 11.381C20.8593 11.489 21.0424 11.6018 21.2082 11.7184C21.225 11.7301 21.2421 11.7408 21.2596 11.7505C21.8548 12.1778 22.2505 12.6635 22.5953 13.2124C22.9761 13.8188 23.1593 14.8559 23.3271 15.8136C22.8938 15.3572 22.333 15.501 22.333 15.501L22.506 15.4676H12.4982H2.49396L2.66791 15.501C2.66791 15.501 2.10617 15.3572 1.6729 15.8136C1.84065 14.8559 2.02388 13.8188 2.40474 13.2124C2.7497 12.6632 3.14547 12.1767 3.74134 11.7493C3.75847 11.74 3.77531 11.7297 3.79181 11.7184C3.95756 11.6018 4.14079 11.489 4.34159 11.381C4.35423 11.3743 4.36756 11.368 4.38035 11.3613C4.57316 11.2594 4.78329 11.1611 5.01215 11.0684C5.02542 11.063 5.0375 11.0577 5.0509 11.0523C5.23302 10.9798 5.43972 10.9133 5.64665 10.8472C5.85076 10.7816 6.07657 10.7217 6.30729 10.6631C6.42909 10.6323 6.54551 10.6003 6.67501 10.5716C6.89654 10.5223 7.14263 10.4798 7.38793 10.437C7.54646 10.4094 7.6949 10.3788 7.86381 10.3542C8.10825 10.3182 8.38268 10.2911 8.64972 10.2615C8.83904 10.2406 9.01451 10.216 9.21573 10.1985C9.25482 10.1951 9.29695 10.1918 9.3365 10.1886C9.73171 10.1557 10.1544 10.1313 10.5965 10.112C10.7075 10.1072 10.8168 10.1023 10.9309 10.0984C11.4262 10.0811 11.942 10.0687 12.4982 10.0687ZM23.4731 16.3289C23.4983 16.3981 23.5226 16.4662 23.5317 16.5427C23.5366 16.5844 23.5307 16.5758 23.5353 16.6168C23.5034 16.544 23.4896 16.4331 23.4731 16.3289ZM1.52509 16.3388C1.50934 16.44 1.49557 16.5464 1.4647 16.6168C1.46929 16.5758 1.46335 16.5844 1.46831 16.5427C1.47697 16.4698 1.50112 16.4048 1.52509 16.3388ZM3.3628 17.7945C3.27515 17.7944 3.18834 17.8179 3.10733 17.8638C3.02632 17.9097 2.9527 17.977 2.89068 18.062C2.82866 18.1469 2.77945 18.2477 2.74587 18.3587C2.71228 18.4697 2.69498 18.5887 2.69495 18.7089V24.0856C2.69498 24.2057 2.71228 24.3247 2.74587 24.4357C2.77945 24.5467 2.82866 24.6476 2.89068 24.7325C2.9527 24.8174 3.02632 24.8848 3.10733 24.9307C3.18834 24.9766 3.27515 25.0001 3.3628 25H7.07518C7.16284 25.0001 7.24965 24.9766 7.33065 24.9307C7.41166 24.8848 7.48528 24.8174 7.5473 24.7325C7.60932 24.6476 7.65853 24.5467 7.69212 24.4357C7.7257 24.3247 7.743 24.2057 7.74303 24.0856V23.2255H17.257V24.0856C17.257 24.2057 17.2743 24.3247 17.3079 24.4357C17.3415 24.5467 17.3907 24.6476 17.4527 24.7325C17.5147 24.8174 17.5883 24.8848 17.6693 24.9307C17.7504 24.9766 17.8372 25.0001 17.9248 25H21.6381C21.815 24.9999 21.9846 24.9035 22.1096 24.7321C22.2347 24.5606 22.305 24.3281 22.305 24.0856V18.7089C22.305 18.4664 22.2347 18.2339 22.1096 18.0624C21.9846 17.8909 21.815 17.7946 21.6381 17.7945H3.3628ZM4.02975 19.6246H20.9703V23.1699H18.5927V22.3148C18.5928 22.1945 18.5755 22.0754 18.542 21.9642C18.5085 21.8531 18.4593 21.7521 18.3973 21.667C18.3352 21.582 18.2616 21.5145 18.1805 21.4685C18.0994 21.4226 18.0125 21.399 17.9248 21.3991H7.07518C6.89863 21.4002 6.72958 21.4971 6.60507 21.6688C6.48057 21.8404 6.41076 22.0727 6.41094 22.3148V23.1699H4.02975V19.6246Z" fill="black"/>
</svg>
