<svg width="25" height="25" viewBox="0 0 25 25" fill="none" xmlns="http://www.w3.org/2000/svg">
<path d="M10.7169 25H10.7148C9.93241 24.9994 9.19674 24.6942 8.64372 24.1403L0.854476 16.3405C-0.284825 15.1991 -0.284825 13.342 0.854476 12.2008L11.3545 1.68137C12.4366 0.597229 13.8763 0 15.4084 0H22.0701C23.6855 0 25 1.31409 25 2.92969V9.57047C25 11.1014 24.4033 12.5404 23.3202 13.6223L12.7875 24.1432C12.2342 24.6957 11.4988 25 10.7169 25ZM15.4084 1.95313C14.3988 1.95313 13.4501 2.34665 12.737 3.06107L2.23687 13.5805C1.85705 13.961 1.85705 14.5799 2.23687 14.9605L10.0261 22.7603C10.2103 22.9448 10.4554 23.0467 10.7163 23.0469H10.7171C10.9777 23.0469 11.2228 22.9454 11.4071 22.7614L21.9398 12.2406C22.6536 11.5277 23.0467 10.5792 23.0467 9.57047V2.92969C23.0467 2.3912 22.6086 1.95313 22.0701 1.95313H15.4084ZM17.9193 9.91211C16.3037 9.91211 14.9894 8.59802 14.9894 6.98242C14.9894 5.36682 16.3037 4.05273 17.9193 4.05273C19.5348 4.05273 20.8492 5.36682 20.8492 6.98242C20.8492 8.59802 19.5348 9.91211 17.9193 9.91211ZM17.9193 6.00586C17.3807 6.00586 16.9426 6.44394 16.9426 6.98242C16.9426 7.5209 17.3807 7.95898 17.9193 7.95898C18.4579 7.95898 18.8959 7.5209 18.8959 6.98242C18.8959 6.44394 18.4579 6.00586 17.9193 6.00586Z" fill="black"/>
</svg>
