<svg width="47" height="47" viewBox="0 0 47 47" fill="none" xmlns="http://www.w3.org/2000/svg">
<path d="M20.0928 46.875H20.0888C18.622 46.8739 17.2427 46.3017 16.2058 45.2631L1.60203 30.6384C-0.53401 28.4984 -0.53401 25.0162 1.60203 22.8765L21.2882 3.15256C23.3169 1.1198 26.0163 0 28.8888 0H41.3785C44.4072 0 46.8717 2.46391 46.8717 5.49316V17.9446C46.8717 20.8151 45.7531 23.5133 43.7223 25.5418L23.9749 45.2685C22.9375 46.3045 21.5588 46.875 20.0928 46.875ZM28.8888 3.66211C26.9959 3.66211 25.2172 4.39997 23.8802 5.7395L4.19383 25.4634C3.48172 26.1769 3.48172 27.3374 4.19383 28.0509L18.7976 42.6756C19.143 43.0215 19.6024 43.2126 20.0917 43.2129H20.0931C20.5818 43.2129 21.0413 43.0226 21.3869 42.6776L41.1342 22.9511C42.4726 21.6145 43.2096 19.836 43.2096 17.9446V5.49316C43.2096 4.48351 42.3882 3.66211 41.3785 3.66211H28.8888ZM33.5963 18.5852C30.5673 18.5852 28.1031 16.1213 28.1031 13.092C28.1031 10.0628 30.5673 7.59888 33.5963 7.59888C36.6252 7.59888 39.0894 10.0628 39.0894 13.092C39.0894 16.1213 36.6252 18.5852 33.5963 18.5852ZM33.5963 11.261C32.5866 11.261 31.7652 12.0824 31.7652 13.092C31.7652 14.1017 32.5866 14.9231 33.5963 14.9231C34.6062 14.9231 35.4273 14.1017 35.4273 13.092C35.4273 12.0824 34.6062 11.261 33.5963 11.261Z" fill="black"/>
</svg>
