<svg width="67" height="50" viewBox="0 0 67 50" fill="none" xmlns="http://www.w3.org/2000/svg">
<g clip-path="url(#clip0_318_39)">
<path d="M35.7046 9.05119C38.6406 9.2066 41.2675 7.57487 41.525 5.28268C41.731 3.06819 39.5677 1.08681 36.5287 0.892554C33.5928 0.737151 30.9659 2.36888 30.7083 4.66107C30.5023 6.91441 32.7686 8.89579 35.7046 9.05119Z" fill="black"/>
<path d="M31.12 10.7217C32.1502 10.139 33.4379 9.82817 34.8801 9.86702C36.6829 9.98357 38.2796 10.8383 39.1552 11.8484L44.5636 19.9682L51.9292 23.8533C52.5473 24.2418 52.9594 24.8245 52.9079 25.4461C52.8564 26.4563 51.6202 27.1944 50.281 27.0779C49.9204 27.0779 49.5083 26.9613 49.1478 26.8059L41.2156 22.7266C41.0095 22.5712 40.752 22.3769 40.5975 22.1438L38.5371 19.1135L36.1163 27.1944L45.6968 35.7416C45.9028 36.0135 46.0573 36.3243 46.1603 36.5963L48.7357 46.8917C48.7357 47.1248 48.7357 47.2802 48.7357 47.4745C48.5812 49.0285 46.8299 50.0775 44.8211 50.0386C43.1729 49.9221 41.9367 49.0285 41.5246 47.863L39.1037 38.2669L31.326 31.7399L29.5232 37.9949C29.4717 38.2669 28.9051 38.8885 28.7506 39.1216L21.3335 48.64C20.5609 49.4947 19.3762 50.0775 17.9339 49.9609C15.8736 49.8444 14.3799 48.5234 14.5344 47.0083C14.5859 46.542 14.8435 46.1535 15.0495 45.8039L22.0031 37.0625L27.772 17.7537L24.0119 20.0459L21.9516 26.9225C21.7455 27.7772 20.6124 28.5153 19.3762 28.4765C18.037 28.4376 17.0583 27.5052 17.1098 26.4951C17.1098 26.4563 17.1098 26.3397 17.1613 26.262L19.4792 18.2588C19.6337 17.9091 19.8397 17.6372 20.2518 17.404L31.12 10.7217Z" fill="black"/>
</g>
<defs>
<clipPath id="clip0_318_39">
<rect width="65.9302" height="49.7289" fill="white" transform="translate(0.730469 0.270996)"/>
</clipPath>
</defs>
</svg>
